<?xml version="1.0" standalone="no"?>
<!DOCTYPE svg PUBLIC "-//W3C//DTD SVG 20010904//EN"
 "http://www.w3.org/TR/2001/REC-SVG-20010904/DTD/svg10.dtd">
<svg version="1.0" xmlns="http://www.w3.org/2000/svg"
 width="2667.000000pt" height="2667.000000pt" viewBox="0 0 2667.000000 2667.000000"
 preserveAspectRatio="xMidYMid meet">
<metadata>
Created by potrace 1.14, written by Peter Selinger 2001-2017
</metadata>
<g transform="translate(0.000000,2667.000000) scale(0.100000,-0.100000)"
fill="#000000" stroke="none">
<path d="M4604 20601 c-257 -73 -559 -388 -767 -798 -150 -296 -229 -541 -316
-978 -108 -538 -131 -873 -91 -1325 30 -335 110 -773 191 -1040 91 -302 346
-830 516 -1068 184 -258 416 -488 574 -568 33 -16 49 -31 49 -44 0 -10 -9 -90
-20 -177 -63 -508 -53 -1078 31 -1608 119 -757 323 -1334 744 -2100 415 -756
828 -1302 1441 -1905 418 -411 907 -801 1499 -1196 349 -232 610 -386 970
-570 779 -398 1509 -650 2415 -835 194 -39 218 -42 450 -49 135 -4 252 -11
260 -14 8 -3 170 -15 360 -26 291 -18 372 -19 520 -10 299 18 573 45 715 71
37 7 107 9 185 4 140 -7 215 3 563 75 1386 289 2598 852 3832 1779 419 314
646 511 1001 865 558 559 903 1009 1294 1691 532 927 772 1649 872 2616 18
175 22 278 22 559 1 339 -9 493 -46 754 l-11 78 31 24 c102 80 469 648 640
990 218 436 424 1050 522 1559 88 453 99 796 40 1210 -82 569 -221 939 -485
1286 -68 90 -277 296 -356 352 -184 130 -361 181 -624 181 -356 -2 -582 -93
-991 -399 -461 -346 -664 -480 -1264 -835 -374 -221 -657 -358 -940 -455 -69
-23 -148 -53 -176 -65 l-51 -23 -194 71 c-717 262 -1457 457 -2169 572 -264
43 -723 97 -1090 129 -538 47 -817 61 -1275 61 -484 0 -1282 -40 -1400 -69
-22 -6 -65 -11 -97 -11 -102 0 -714 -66 -1027 -110 -906 -128 -2014 -436
-2766 -769 -88 -39 -168 -71 -177 -71 -33 0 -198 78 -396 186 -108 59 -222
121 -252 137 -121 66 -283 176 -488 330 -118 89 -260 196 -316 237 -296 218
-564 454 -1003 883 -249 244 -339 313 -488 373 -157 63 -336 81 -461 45z m146
-429 c42 -119 383 -741 510 -932 126 -188 240 -320 515 -599 309 -313 382
-378 595 -529 80 -56 195 -141 255 -188 61 -47 139 -105 173 -127 l64 -42 -28
-20 c-408 -295 -662 -507 -961 -802 -181 -178 -259 -277 -483 -613 -112 -168
-308 -539 -374 -707 -19 -50 -47 -118 -62 -150 -14 -32 -43 -114 -65 -182 -21
-68 -40 -125 -42 -128 -2 -2 -36 36 -76 84 -39 48 -115 138 -168 199 -176 199
-290 391 -480 804 -111 242 -186 496 -242 825 -91 541 -105 934 -45 1310 99
625 190 946 360 1275 129 249 327 481 479 563 44 24 55 18 75 -41z m17134
-215 c257 -96 561 -479 690 -870 100 -299 161 -695 160 -1032 0 -229 -19 -390
-85 -710 -87 -420 -260 -931 -454 -1340 -86 -181 -379 -671 -435 -729 -17 -18
-18 -17 -35 39 -61 212 -275 667 -435 929 -273 445 -537 744 -996 1128 -101
84 -544 420 -641 486 -35 24 -63 46 -63 50 0 4 24 20 53 36 60 34 181 116 282
192 152 114 728 668 919 883 318 360 681 836 718 941 l11 32 121 -4 c98 -4
134 -10 190 -31z m-13420 -1818 c-145 -87 -853 -560 -1013 -677 -158 -115
-380 -294 -497 -399 -161 -147 -600 -609 -719 -758 -326 -408 -532 -730 -765
-1194 -118 -236 -180 -394 -235 -607 -43 -167 -89 -439 -117 -704 l-13 -125
-6 95 c-17 254 18 752 76 1070 65 354 170 742 247 910 154 334 418 761 556
898 83 81 314 271 503 413 136 102 145 109 276 200 48 34 122 86 163 115 224
157 668 399 1080 588 47 22 119 55 160 74 189 86 388 169 414 171 5 1 -45 -31
-110 -70z"/>
</g>
</svg>
