<svg width="68" height="68" viewBox="0 0 68 68" fill="none" xmlns="http://www.w3.org/2000/svg">
<path d="M2.83325 56.6667V45.3334C2.83325 43.7278 3.38811 42.382 4.49784 41.2959C5.60756 40.2098 6.94159 39.6667 8.49992 39.6667H17.7791C18.7235 39.6667 19.6208 39.9028 20.4708 40.375C21.3208 40.8473 22.0055 41.4848 22.5249 42.2875C23.8944 44.1292 25.5826 45.5695 27.5895 46.6084C29.5964 47.6473 31.7333 48.1667 33.9999 48.1667C36.3138 48.1667 38.4742 47.6473 40.4812 46.6084C42.4881 45.5695 44.1527 44.1292 45.4749 42.2875C46.0888 41.4848 46.8089 40.8473 47.6353 40.375C48.4617 39.9028 49.3235 39.6667 50.2208 39.6667H59.4999C61.1055 39.6667 62.4513 40.2098 63.5374 41.2959C64.6235 42.382 65.1666 43.7278 65.1666 45.3334V56.6667H45.3333V50.2209C43.6805 51.4014 41.8978 52.2987 39.9853 52.9125C38.0728 53.5264 36.0777 53.8334 33.9999 53.8334C31.9694 53.8334 29.986 53.5146 28.0499 52.8771C26.1138 52.2396 24.3194 51.3306 22.6666 50.15V56.6667H2.83325ZM33.9999 45.3334C32.2055 45.3334 30.5055 44.9202 28.8999 44.0938C27.2944 43.2674 25.9485 42.1223 24.8624 40.6584C24.0596 39.4778 23.0562 38.5452 21.852 37.8605C20.6478 37.1757 19.3374 36.8334 17.9208 36.8334C18.9596 35.0862 21.1555 33.7049 24.5083 32.6896C27.861 31.6743 31.0249 31.1667 33.9999 31.1667C36.9749 31.1667 40.1388 31.6743 43.4916 32.6896C46.8444 33.7049 49.0402 35.0862 50.0791 36.8334C48.7096 36.8334 47.411 37.1757 46.1833 37.8605C44.9555 38.5452 43.9402 39.4778 43.1374 40.6584C42.0985 42.1695 40.7763 43.3264 39.1708 44.1292C37.5652 44.932 35.8416 45.3334 33.9999 45.3334ZM11.3333 36.8334C8.97214 36.8334 6.9652 36.007 5.31242 34.3542C3.65964 32.7014 2.83325 30.6945 2.83325 28.3334C2.83325 25.925 3.65964 23.9063 5.31242 22.2771C6.9652 20.648 8.97214 19.8334 11.3333 19.8334C13.7416 19.8334 15.7603 20.648 17.3895 22.2771C19.0187 23.9063 19.8333 25.925 19.8333 28.3334C19.8333 30.6945 19.0187 32.7014 17.3895 34.3542C15.7603 36.007 13.7416 36.8334 11.3333 36.8334ZM56.6666 36.8334C54.3055 36.8334 52.2985 36.007 50.6458 34.3542C48.993 32.7014 48.1666 30.6945 48.1666 28.3334C48.1666 25.925 48.993 23.9063 50.6458 22.2771C52.2985 20.648 54.3055 19.8334 56.6666 19.8334C59.0749 19.8334 61.0937 20.648 62.7228 22.2771C64.352 23.9063 65.1666 25.925 65.1666 28.3334C65.1666 30.6945 64.352 32.7014 62.7228 34.3542C61.0937 36.007 59.0749 36.8334 56.6666 36.8334ZM33.9999 28.3334C31.6388 28.3334 29.6319 27.507 27.9791 25.8542C26.3263 24.2014 25.4999 22.1945 25.4999 19.8334C25.4999 17.425 26.3263 15.4063 27.9791 13.7771C29.6319 12.148 31.6388 11.3334 33.9999 11.3334C36.4083 11.3334 38.427 12.148 40.0562 13.7771C41.6853 15.4063 42.4999 17.425 42.4999 19.8334C42.4999 22.1945 41.6853 24.2014 40.0562 25.8542C38.427 27.507 36.4083 28.3334 33.9999 28.3334Z" fill="#75E4FF"/>
</svg>
