<svg width="59" height="59" viewBox="0 0 59 59" fill="none" xmlns="http://www.w3.org/2000/svg">
<path d="M9.83329 51.625C8.48121 51.625 7.32374 51.1435 6.3609 50.1807C5.39805 49.2178 4.91663 48.0604 4.91663 46.7083V19.6666C4.91663 18.3145 5.39805 17.1571 6.3609 16.1942C7.32374 15.2314 8.48121 14.75 9.83329 14.75H19.6666V9.83329C19.6666 8.48121 20.148 7.32374 21.1109 6.3609C22.0737 5.39805 23.2312 4.91663 24.5833 4.91663H34.4166C35.7687 4.91663 36.9262 5.39805 37.889 6.3609C38.8519 7.32374 39.3333 8.48121 39.3333 9.83329V14.75H49.1666C50.5187 14.75 51.6762 15.2314 52.639 16.1942C53.6019 17.1571 54.0833 18.3145 54.0833 19.6666V46.7083C54.0833 48.0604 53.6019 49.2178 52.639 50.1807C51.6762 51.1435 50.5187 51.625 49.1666 51.625H9.83329ZM9.83329 46.7083H49.1666V19.6666H9.83329V46.7083ZM24.5833 14.75H34.4166V9.83329H24.5833V14.75Z" fill="#75E4FF"/>
</svg>
