<svg width="59" height="59" viewBox="0 0 59 59" fill="none" xmlns="http://www.w3.org/2000/svg">
<path d="M29.5 0C21.3875 0 14.75 8.26 14.75 18.4375C14.75 28.615 21.3875 36.875 29.5 36.875C37.6125 36.875 44.25 28.615 44.25 18.4375C44.25 8.26 37.6125 0 29.5 0ZM19.5827 41.4567C15.6769 39.1377 11.1807 36.5987 7.26801 38.9061C2.92383 41.468 0 46.1853 0 51.625C0 55.6981 3.3019 59 7.375 59H51.625C55.6981 59 59 55.6981 59 51.625C59 46.1725 56.0969 41.4457 51.7338 38.8879C47.8171 36.5919 43.3242 39.1361 39.4208 41.4546C36.4319 43.2299 33.0575 44.25 29.5 44.25C25.9439 44.25 22.5707 43.2307 19.5827 41.4567Z" fill="#75E4FF"/>
</svg>
