<svg width="55" height="55" viewBox="0 0 55 55" fill="none" xmlns="http://www.w3.org/2000/svg">
<path d="M3.4375 0C1.53902 0 0 1.53902 0 3.4375V51.5625C0 53.461 1.53902 55 3.4375 55C5.33598 55 6.875 53.461 6.875 51.5625V3.4375C6.875 1.53902 5.33598 0 3.4375 0ZM24.0625 0C18.3671 0 13.75 4.61706 13.75 10.3125V20.625C13.75 24.422 16.828 27.5 20.625 27.5H24.0625C25.961 27.5 27.5 29.039 27.5 30.9375C27.5 32.836 29.039 34.375 30.9375 34.375H41.3104C46.3288 34.375 48.8224 28.29 45.2471 24.7684C43.0396 22.594 43.0476 19.0066 45.2223 16.7994C48.8222 13.1455 46.319 6.875 41.1896 6.875H37.8125C35.914 6.875 34.375 5.33598 34.375 3.4375C34.375 1.53902 32.836 0 30.9375 0L24.0625 0Z" fill="#75E4FF"/>
</svg>
