<?xml version="1.0" encoding="utf-8"?>
<!-- Generator: Adobe Illustrator 27.8.1, SVG Export Plug-In . SVG Version: 6.00 Build 0)  -->
<svg version="1.1"
	 id="svg2" xmlns:sodipodi="http://sodipodi.sourceforge.net/DTD/sodipodi-0.dtd" xmlns:svg="http://www.w3.org/2000/svg" xmlns:inkscape="http://www.inkscape.org/namespaces/inkscape" xmlns:cc="http://creativecommons.org/ns#" xmlns:rdf="http://www.w3.org/1999/02/22-rdf-syntax-ns#" xmlns:dc="http://purl.org/dc/elements/1.1/" sodipodi:docname="New document 1"
	 xmlns="http://www.w3.org/2000/svg" xmlns:xlink="http://www.w3.org/1999/xlink" x="0px" y="0px" viewBox="0 0 209.4 74.3"
	 style="enable-background:new 0 0 209.4 74.3;" xml:space="preserve">
<style type="text/css">
	.st0{fill:#FFFFFF;}
	.st1{fill:#1E9CD6;}
</style>
<defs>
	
		<inkscape:perspective  id="perspective10" inkscape:persp3d-origin="372.04724 : 350.78739 : 1" inkscape:vp_x="0 : 526.18109 : 1" inkscape:vp_y="0 : 1000 : 0" inkscape:vp_z="744.09448 : 526.18109 : 1" sodipodi:type="inkscape:persp3d">
		</inkscape:perspective>
	
		<inkscape:perspective  id="perspective2824" inkscape:persp3d-origin="0.5 : 0.33333333 : 1" inkscape:vp_x="0 : 0.5 : 1" inkscape:vp_y="0 : 1000 : 0" inkscape:vp_z="1 : 0.5 : 1" sodipodi:type="inkscape:persp3d">
		</inkscape:perspective>
	
		<inkscape:perspective  id="perspective3534" inkscape:persp3d-origin="0.5 : 0.33333333 : 1" inkscape:vp_x="0 : 0.5 : 1" inkscape:vp_y="0 : 1000 : 0" inkscape:vp_z="1 : 0.5 : 1" sodipodi:type="inkscape:persp3d">
		</inkscape:perspective>
</defs>
<sodipodi:namedview  bordercolor="#666666" borderopacity="1.0" id="base" inkscape:current-layer="layer1" inkscape:cx="72.752812" inkscape:cy="30.749741" inkscape:document-units="px" inkscape:pageopacity="0.0" inkscape:pageshadow="2" inkscape:window-height="1000" inkscape:window-maximized="1" inkscape:window-width="1680" inkscape:window-x="-8" inkscape:window-y="-8" inkscape:zoom="3.7899738" pagecolor="#ffffff" showgrid="false">
	</sodipodi:namedview>
<g id="layer1" transform="translate(729.3383,-62.689034)" inkscape:groupmode="layer" inkscape:label="Layer 1">
	<path id="path2928-4" d="M-685.5,96.2h-21.7c0,0.2,0,0.4,0,0.6c0,0.2,0,0.4,0,0.7h21.6L-685.5,96.2"/>
	<path id="path2892" class="st0" d="M-674.8,128l5.7-26.4h12.7l-0.9,4.4h-7.5l-1.3,6h7.3l-1,4.4h-7.3l-1.6,7.3h7.8l-0.9,4.3H-674.8"
		/>
	<path id="path2894" class="st0" d="M-612.1,122.7c0,1.3,0.5,2.1,1.5,2.1c1.8,0,2.5-2.1,3.4-6.4c0.5-2.1,0.9-3.8,0.9-5.1
		c0-1.3-0.2-2.2-1.6-2.2c-1.9,0-2.4,2.1-3.4,6.5C-611.4,118.7-612.1,121-612.1,122.7z M-600,107.9c0,0-3.9,17.8-4.8,22
		c-0.9,3.9-3.7,6.3-8.3,6.3c-3.5,0-5.5-1.5-5.5-4.4c0-0.4,0.1-1,0.2-1.5h4.7c-0.2,0.8-0.2,1.6,0,2c0.2,0.5,0.7,0.8,1.5,0.8
		c1.3,0,2.1-1.3,2.6-3.3l0.7-3.4h-0.1c-1.1,1.6-2.6,1.9-4.2,1.9c-2.8,0-3.8-2.1-3.8-4.4c0-1.9,1.3-9,2.3-11.3c1.3-3,3.1-4.9,5.9-4.9
		c1.8,0,3.2,0.7,3.5,2.5h0.2l0.4-2.2L-600,107.9"/>
	<path id="path2896" class="st0" d="M-598.7,128.8l-0.5-20.9h5l-0.6,14.6h0.1l5.6-14.6h5.1l-13.2,27.7h-5L-598.7,128.8"/>
	<path id="path2898" class="st0" d="M-675.2,85c0-3.3,1.3-11,3.3-15.6c1.6-3.9,4.7-5.5,9.5-5.5c3.9,0,6.1,1.9,6.1,5.2
		c0,1.3-0.3,3.2-0.7,4.6h-5c0.3-1.6,0.5-3,0.5-3.7c0-1.2-0.7-1.8-2-1.8c-2.1,0-2.9,1.3-3.7,3.4c-1,2.8-2.5,9.8-2.5,12.9
		c0,1.6,0.7,2.3,2.3,2.3c2.7,0,3.2-3.1,3.8-5.9h5.1c-1.1,6.9-4.1,10.2-9.9,10.2C-672.9,91.1-675.2,89-675.2,85"/>
	<path id="path2900" class="st0" d="M-647,78.4c0.2-0.9,0.4-1.8,0.4-2.8s-0.4-1.9-1.7-1.9c-2.4,0-3,3-3.3,4.7H-647z M-652.3,81.4
		c-0.2,1.1-0.6,2.4-0.6,3.6c0,1.3,0.5,2.4,1.7,2.4c1.8,0,2.6-1.9,2.9-3.6h4.9c-1.5,5.5-4.3,7.1-8.6,7.1c-4,0-5.8-2.3-5.8-5.2
		c0-2.2,0.2-3.3,0.6-5.2c1.2-5.5,2.9-10.2,9.6-10.2c3.6,0,5.7,1.7,5.7,5.3c0,1.7-0.4,3.6-1,5.8H-652.3"/>
	<path id="path2902" class="st0" d="M-606.9,78.4c0.2-0.9,0.4-1.8,0.4-2.8s-0.4-1.9-1.7-1.9c-2.4,0-3,3-3.4,4.7H-606.9z
		 M-612.2,81.4c-0.2,1.1-0.6,2.4-0.6,3.6c0,1.3,0.5,2.4,1.7,2.4c1.8,0,2.6-1.9,2.9-3.6h4.9c-1.5,5.5-4.3,7.1-8.6,7.1
		c-4,0-5.8-2.3-5.8-5.2c0-2.2,0.2-3.3,0.6-5.2c1.2-5.5,2.9-10.2,9.6-10.2c3.6,0,5.7,1.7,5.7,5.3c0,1.7-0.4,3.6-0.9,5.8H-612.2"/>
	<path id="path2904" class="st0" d="M-632.3,115.8c0.2-0.9,0.4-1.8,0.4-2.8s-0.5-1.9-1.8-1.9c-2.4,0-3,3-3.3,4.7H-632.3z
		 M-637.6,118.8c-0.2,1.1-0.6,2.4-0.6,3.6c0,1.3,0.5,2.4,1.7,2.4c1.8,0,2.5-1.9,2.9-3.6h4.9c-1.5,5.5-4.3,7.1-8.6,7.1
		c-4,0-5.8-2.3-5.8-5.2c0-2.2,0.2-3.3,0.7-5.2c1.2-5.5,2.9-10.2,9.6-10.2c3.6,0,5.7,1.7,5.7,5.3c0,1.7-0.4,3.6-0.9,5.8H-637.6"/>
	<path id="path2906" class="st0" d="M-634.3,72.7h0.1c1.4-1.8,2.7-2.4,4.6-2.4c2.1,0,3.6,1.2,3.6,3.3c0,0.3,0,0.7-0.1,1.1l-3.4,15.8
		h-5l3-13.6c0.1-0.6,0.2-1.2,0.2-1.6c0-0.9-0.3-1.5-1.4-1.5c-1.7,0-2.2,1.3-2.6,3.2l-2.9,13.6h-4.9l4.3-19.9h4.8L-634.3,72.7"/>
	<path id="path2908" class="st0" d="M-544.5,72.7h0.1c1.4-1.8,2.7-2.4,4.6-2.4c2.1,0,3.6,1.2,3.6,3.3c0,0.3,0,0.7-0.1,1.1l-3.4,15.8
		h-5l3-13.6c0.1-0.6,0.2-1.2,0.2-1.6c0-0.9-0.3-1.5-1.4-1.5c-1.7,0-2.2,1.3-2.6,3.2l-2.9,13.6h-4.9l4.3-19.9h4.8L-544.5,72.7"/>
	<path id="path2910" class="st0" d="M-651.4,110.2h0.1c1.4-1.8,2.7-2.4,4.6-2.4c2.1,0,3.6,1.2,3.6,3.3c0,0.3,0,0.7-0.1,1.1
		l-3.3,15.8h-5l2.9-13.6c0.1-0.6,0.2-1.2,0.2-1.6c0-0.9-0.3-1.5-1.4-1.5c-1.7,0-2.2,1.3-2.6,3.2l-2.9,13.6h-4.9l4.3-19.9h4.8
		L-651.4,110.2"/>
	<path id="path2912" class="st0" d="M-622.1,67.5l5.5-2.4l-1.2,5.6h2.5L-616,74h-2.5l-2.5,11.6c0,0.2-0.1,0.4-0.1,0.6
		c0,0.7,0.5,1,1.6,1c0.3,0,0.6,0,0.9-0.1l-0.7,3.4c-0.7,0.1-1.5,0.2-2.8,0.2c-2.7,0-4.1-1.3-4.1-3.6c0-0.4,0.1-0.9,0.1-1.2
		L-622.1,67.5"/>
	<path id="path2914" class="st0" d="M-532.5,67.5l5.5-2.4l-1.2,5.6h2.5l-0.7,3.4h-2.5l-2.5,11.6c0,0.2-0.1,0.4-0.1,0.6
		c0,0.7,0.5,1,1.6,1c0.3,0,0.6,0,0.9-0.1l-0.7,3.4c-0.7,0.1-1.5,0.2-2.8,0.2c-2.7,0-4.1-1.3-4.1-3.6c0-0.4,0.1-0.9,0.1-1.2
		L-532.5,67.5"/>
	<path id="path2916" class="st0" d="M-594.1,70.6l-0.6,2.7h0.2c1-1.8,2.3-2.9,5-2.9l-1,4.8c-0.2,0-0.5,0-0.7,0
		c-2.6,0-3.8,1.3-4.3,3.6l-2.5,11.8h-5l4.3-19.9H-594.1"/>
	<path id="path2918" class="st0" d="M-619.2,108l-0.6,2.7h0.2c1-1.8,2.2-2.9,5-2.9l-1,4.8c-0.2,0-0.5,0-0.7,0
		c-2.6,0-3.8,1.3-4.3,3.6l-2.5,11.8h-4.9l4.3-19.9L-619.2,108"/>
	<path id="path2920" class="st0" d="M-584.3,76.8h1.8c2.8,0,4.2-3.4,4.2-6.2c0-1.8-0.7-2.5-2.2-2.5h-1.8L-584.3,76.8z M-586.8,64.1
		h7.5c4.3,0,6.1,2.4,6.1,5.6c0,1.7-0.1,2.2-0.6,3.8c-1.1,4.3-3.5,7.4-8.3,7.4h-3.2l-2.1,9.6h-5.2L-586.8,64.1"/>
	<path id="path2922" class="st0" d="M-565.3,81.9c0.7-2.7,1.2-4.9,1.2-6c0-0.9-0.2-2.1-1.7-2.1c-2.6,0-2.8,2.9-3.7,6
		c-0.5,1.7-1,3.6-1,5.5c0,1.5,0.6,2.1,1.7,2.1C-566.5,87.4-565.9,84.4-565.3,81.9z M-575.3,85.9c0-0.9,0.3-4.4,1.2-7.3
		c1.6-5.4,3.4-8.4,8.8-8.4c4.3,0,5.9,1.9,5.9,5.2c0,1-0.3,3.5-1,6.1c-1.4,5.8-3.4,9.4-9.2,9.4C-573.3,90.9-575.3,89.2-575.3,85.9"/>
	<path id="path2924" class="st0" d="M-549.8,64.2l-0.9,4.4h-4.9l1-4.4H-549.8z M-555.4,90.6h-4.9l4.3-20h4.9L-555.4,90.6"/>
	<path id="path2926" class="st1" d="M-707.1,96.2h21.1c-0.3-11.4-9.7-20.6-21.1-20.6c-11.7,0-21.2,9.5-21.2,21.2s9.5,21.2,21.2,21.2
		c11.5,0,20.8-9.1,21.1-20.5h-21.1V96.2"/>
	<path id="path2928" class="st1" d="M-578.4,96.2h-107.6c0,0.2,0,0.4,0,0.6c0,0.2,0,0.4,0,0.7h106.8L-578.4,96.2"/>
	<path id="path2930" class="st0" d="M-524.1,87.2c0.5,0,0.7-0.2,0.7-0.5s-0.1-0.4-0.6-0.4h-0.7v0.9H-524.1z M-524.7,87.8v1.6h-0.6
		v-3.7h1.2c0.7,0,1.4,0.2,1.4,1c0,0.4-0.3,0.8-0.7,0.9v0c0.5,0.1,0.6,0.3,0.6,0.7c0,0.4,0.1,0.7,0.2,1.1h-0.7c0-0.2-0.1-0.4-0.1-0.7
		c0-0.3,0-0.6-0.2-0.8c-0.1-0.1-0.3-0.1-0.5-0.1L-524.7,87.8L-524.7,87.8z M-521.5,87.6c0-1.4-1.2-2.6-2.6-2.6
		c-1.4,0-2.6,1.2-2.6,2.6c0,1.4,1.2,2.6,2.6,2.6C-522.6,90.2-521.5,89-521.5,87.6z M-527.2,87.6c0-1.7,1.4-3.1,3.1-3.1
		c1.7,0,3.1,1.4,3.1,3.1c0,1.7-1.4,3.1-3.1,3.1C-525.8,90.7-527.2,89.3-527.2,87.6"/>
</g>
</svg>
