<svg version="1.1" id="Layer_1" xmlns:x="ns_extend;" xmlns:i="ns_ai;" xmlns:graph="ns_graphs;" xmlns="http://www.w3.org/2000/svg" xmlns:xlink="http://www.w3.org/1999/xlink" x="0px" y="0px" viewBox="0 0 265.6 100" style="enable-background:new 0 0 265.6 100;" xml:space="preserve">
 <style type="text/css">
  .st0{fill:#008CD2;}
	.st1{fill:#56B146;}
 </style>
 <metadata>
  <sfw xmlns="ns_sfw;">
   <slices>
   </slices>
   <sliceSourceBounds bottomLeftOrigin="true" height="100" width="265.6" x="-103.6" y="1">
   </sliceSourceBounds>
  </sfw>
 </metadata>
 <g>
  <path class="st0" d="M29.1,0C14.4,0,0,6.4,0,23.9c0,25.9,36.4,19.7,36.4,34.6c0,7.1-8.4,10.1-14.7,10.1c-6.5,0-14.6-1.9-20.4-4.8
		v14.1c8.2,1.9,12.3,3,21.3,3c16.8,0,31.1-6.5,31.1-23.6c0-26.2-36.4-20.5-36.4-34c0-8.5,7.4-10.9,13.1-10.9c5.8,0,13,1.5,18.3,3.7
		l0.1-13.2C42.8,0.9,36.2,0,29.1,0z M127.5,22.4c-12.1,0-23.3,5.4-23.3,17.4c0,20.2,26.9,12.7,26.9,23.7c0,5.4-6.3,6.9-10.2,6.9
		c-5.3,0-10.3-1.4-15.2-3.7l-0.9,11.9c5.7,1.4,11.6,2.4,17.5,2.4c12.6,0,25-5.2,25-18.3c0-20.2-26.9-14.6-26.9-23.5
		c0-4.8,5-6.2,9.1-6.2c5.7,0,9.9,0.9,14.7,2.4l0.2-11C139.5,23.6,134.8,22.4,127.5,22.4L127.5,22.4z M180.9,22.4
		c-18.6,0-28.8,12.9-28.8,29.1c0,17.1,9.9,29.6,29.4,29.6c6.4,0,10.9-0.6,15.4-1.9l-0.7-12.1c-2.7,1.1-7.5,2.6-11.8,2.6
		c-10.9,0-16.1-7.9-16.1-18.3c0-10.6,6.1-17.7,15.7-17.7c4.7,0,7.8,0.9,10.5,2.1l1.4-11.5C191.7,23.1,187.2,22.4,180.9,22.4z
		 M229.8,22.4c-17.6,0-31.1,11.2-31.1,29.7c0,16.1,11.4,29,31.1,29c19.7,0,31.2-12.8,31.2-29C261,33.7,247.4,22.4,229.8,22.4z
		 M260.8,22.4c-2.7,0-4.7,2-4.7,4.4c0,2.5,2.1,4.5,4.7,4.5c2.6,0,4.8-2,4.8-4.5C265.6,24.4,263.5,22.4,260.8,22.4L260.8,22.4
		L260.8,22.4z M90.2,23l-29.6,77h14.2l31.1-77H90.2z M260.8,23.5c2,0,3.3,1.5,3.3,3.3c0,1.8-1.4,3.4-3.3,3.4c-1.9,0-3.3-1.5-3.3-3.3
		C257.4,25,258.9,23.5,260.8,23.5z M260.8,24.7c-0.9,0-1.6,0.1-1.9,0.2v4h1.3v-1.5h0.4c0.4,0,0.6,0.3,0.7,0.7
		c0.1,0.4,0.2,0.7,0.3,0.8h1.4c-0.1-0.2-0.1-0.4-0.3-1c-0.1-0.6-0.4-0.9-0.9-1v-0.1c0.6-0.2,0.9-0.6,0.9-1c0-0.4-0.2-0.7-0.4-0.8
		C262.2,24.9,261.7,24.7,260.8,24.7z M260.3,25.6c0.1,0,0.3,0,0.4,0c0.5,0,0.8,0.1,0.8,0.5c0,0.3-0.3,0.5-0.8,0.5h-0.4V25.6z
		 M229.8,33.8c10.2,0,15,8.1,15,16.6c0,9.4-3.1,19.4-15,19.4c-11.8,0-14.9-10.1-14.9-19.4C214.9,42,219.7,33.8,229.8,33.8z">
  </path>
  <path class="st1" d="M41.1,18.5c6.6,6.3,13.1,14,17.8,23c4.2,8.1,6.4,15.9,7.9,23.9c0.1,0.3,0.3,0.3,0.4,0c5.6-9.4,9.1-22.1,4-31.7
		C66,23.6,53.3,19,41.4,18C40.9,18,40.9,18.2,41.1,18.5">
  </path>
 </g>
</svg>